<svg width="64" height="64" viewBox="0 0 64 64" fill="none" xmlns="http://www.w3.org/2000/svg">
  <defs>
    <linearGradient id="brandGradient" x1="4" y1="6" x2="58" y2="60" gradientUnits="userSpaceOnUse">
      <stop stop-color="#5C6CFF"/>
      <stop offset="0.48" stop-color="#7C3AED"/>
      <stop offset="1" stop-color="#00C6FF"/>
    </linearGradient>
    <linearGradient id="trayGradient" x1="16" y1="42" x2="48" y2="42" gradientUnits="userSpaceOnUse">
      <stop stop-color="#FFFFFF" stop-opacity="0.92"/>
      <stop offset="1" stop-color="#E0E7FF" stop-opacity="0.7"/>
    </linearGradient>
  </defs>
  <rect x="4" y="4" width="56" height="56" rx="18" fill="url(#brandGradient)"/>
  <g filter="url(#shadow)">
    <path d="M32 17.5c7.456 0 13.5 6.044 13.5 13.5v1.5h3.4a1.85 1.85 0 010 3.7H15.1a1.85 1.85 0 110-3.7h3.4V31c0-7.456 6.044-13.5 13.5-13.5zm0 4c-5.232 0-9.5 4.268-9.5 9.5V32h19v-1.5c0-5.232-4.268-9.5-9.5-9.5z" fill="white"/>
    <path d="M26.4 40.3h11.2c.994 0 1.8.806 1.8 1.8 0 .81-.523 1.524-1.29 1.744l-5.6 1.6a1.798 1.798 0 01-1.02 0l-5.6-1.6a1.834 1.834 0 01-1.29-1.744c0-.994.806-1.8 1.8-1.8z" fill="url(#trayGradient)"/>
    <path d="M30.5 44.5a3.5 3.5 0 117 0 3.5 3.5 0 01-7 0z" fill="#1E1B4B"/>
    <rect x="30.375" y="14.75" width="3.25" height="4" rx="1.625" fill="#F8FAFC" opacity="0.8"/>
  </g>
  <filter id="shadow" x="9" y="9" width="46" height="46" filterUnits="userSpaceOnUse" color-interpolation-filters="sRGB">
    <feFlood flood-opacity="0" result="BackgroundImageFix"/>
    <feColorMatrix in="SourceAlpha" type="matrix" values="0 0 0 0 0 0 0 0 0 0 0 0 0 0 0 0 0 0 127 0"/>
    <feOffset dy="4"/>
    <feGaussianBlur stdDeviation="4"/>
    <feColorMatrix type="matrix" values="0 0 0 0 0.047 0 0 0 0 0.063 0 0 0 0 0.196 0 0 0 0.24 0"/>
    <feBlend mode="normal" in2="BackgroundImageFix" result="effect1_dropShadow"/>
    <feBlend mode="normal" in="SourceGraphic" in2="effect1_dropShadow" result="shape"/>
  </filter>
</svg>
