<svg width="220" height="64" viewBox="0 0 220 64" fill="none" xmlns="http://www.w3.org/2000/svg">
  <defs>
    <linearGradient id="wordBrand" x1="12" y1="8" x2="208" y2="56" gradientUnits="userSpaceOnUse">
      <stop stop-color="#5C6CFF"/>
      <stop offset="0.5" stop-color="#7C3AED"/>
      <stop offset="1" stop-color="#00C6FF"/>
    </linearGradient>
    <linearGradient id="wordLight" x1="78" y1="12" x2="192" y2="52" gradientUnits="userSpaceOnUse">
      <stop stop-color="#F8FAFF" stop-opacity="0.92"/>
      <stop offset="1" stop-color="#E0E7FF" stop-opacity="0.78"/>
    </linearGradient>
  </defs>
  <rect x="4.5" y="7.5" width="51" height="49" rx="16" fill="url(#wordBrand)"/>
  <path d="M30 21c7.18 0 13 5.82 13 13v2h3.2a1.8 1.8 0 010 3.6H13.8a1.8 1.8 0 010-3.6H17v-2c0-7.18 5.82-13 13-13zm0 3.8c-5 0-9 4-9 9v2.2h18V33c0-5-4-9-9-9z" fill="white"/>
  <path d="M24.6 41.4h10.8c.96 0 1.74.78 1.74 1.74 0 .78-.5 1.46-1.26 1.68l-5.4 1.54a1.74 1.74 0 01-.96 0l-5.4-1.54a1.74 1.74 0 01-1.26-1.68c0-.96.78-1.74 1.74-1.74z" fill="#E0E7FF" opacity="0.85"/>
  <path d="M72.64 41.76V20.24h7.2c2.64 0 4.64.68 6.04 2.04 1.4 1.36 2.08 3.2 2.08 5.48 0 2.24-.72 4.04-2.16 5.36-1.44 1.32-3.48 1.96-6.16 1.96H78.4v6.68h-5.76zm5.76-11.24h1.28c1.12 0 1.96-.28 2.52-.84.56-.56.84-1.32.84-2.32 0-1.04-.28-1.84-.84-2.4-.56-.56-1.4-.84-2.52-.84H78.4v6.4z" fill="url(#wordLight)"/>
  <path d="M99.88 42.04c-2.32 0-4.28-.72-5.88-2.2-1.6-1.48-2.4-3.44-2.4-5.92 0-2.52.8-4.52 2.4-6.04 1.6-1.52 3.56-2.28 5.88-2.28 2.36 0 4.32.76 5.92 2.28 1.6 1.52 2.4 3.52 2.4 6.04 0 2.48-.8 4.44-2.4 5.92-1.6 1.48-3.56 2.2-5.92 2.2zm0-4c1.12 0 2-.36 2.64-1.12.64-.72.96-1.72.96-3.04 0-1.36-.32-2.36-.96-3.12-.64-.76-1.52-1.12-2.64-1.12s-2.04.36-2.68 1.12c-.64.72-.96 1.72-.96 3.12 0 1.32.32 2.32.96 3.04.64.72 1.56 1.12 2.68 1.12z" fill="url(#wordLight)"/>
  <path d="M119.6 42.04c-1.76 0-3.16-.4-4.28-1.16a4.34 4.34 0 01-1.96-3.76c0-1.68.64-2.96 1.92-3.84 1.28-.88 3-1.32 5.2-1.32h2.64v-.36c0-.84-.24-1.44-.76-1.8-.52-.36-1.32-.52-2.36-.52-1.52 0-3.16.32-4.96.96l-1.04-3.72c1.04-.44 2.12-.76 3.24-.96 1.12-.24 2.48-.36 4.08-.36 2.84 0 4.96.6 6.32 1.8 1.36 1.2 2.04 3 2.04 5.44v10.08h-4.96l-.44-1.8h-.16c-.64.68-1.36 1.2-2.16 1.56-.8.32-1.76.48-2.92.48zm1.72-3.52c.92 0 1.68-.24 2.32-.72.64-.52.96-1.2.96-2.08V34.8h-1.6c-1.44 0-2.52.2-3.2.64-.68.44-1.04 1.04-1.04 1.88 0 .64.24 1.16.72 1.52.48.36 1.04.56 1.84.56z" fill="url(#wordLight)"/>
  <path d="M140.16 41.76h-5.76V20.24h5.76v21.52zm-2.92-24.52c-.92 0-1.68-.28-2.2-.84-.52-.56-.8-1.28-.8-2.12 0-.84.28-1.56.8-2.12.52-.56 1.28-.84 2.2-.84.88 0 1.6.28 2.12.84.52.56.8 1.28.8 2.12 0 .84-.28 1.56-.8 2.12-.52.56-1.24.84-2.12.84z" fill="url(#wordLight)"/>
  <path d="M147.04 41.76V28.44h-2.72v-3.96h2.72v-.64c0-2.4.72-4.24 2.16-5.48 1.44-1.28 3.56-1.88 6.44-1.88 1.04 0 2.16.12 3.36.36l-.72 4.08c-.64-.12-1.24-.2-1.76-.2-1.8 0-2.68.8-2.68 2.32v.44h3.84v3.96h-3.84v13.32h-5.6z" fill="url(#wordLight)"/>
  <path d="M172.44 42.04c-2.32 0-4.28-.72-5.88-2.2-1.6-1.48-2.4-3.44-2.4-5.92 0-2.52.8-4.52 2.4-6.04 1.6-1.52 3.56-2.28 5.88-2.28 2.36 0 4.32.76 5.92 2.28 1.6 1.52 2.4 3.52 2.4 6.04 0 2.48-.8 4.44-2.4 5.92-1.6 1.48-3.56 2.2-5.92 2.2zm0-4c1.12 0 2-.36 2.64-1.12.64-.72.96-1.72.96-3.04 0-1.36-.32-2.36-.96-3.12-.64-.76-1.52-1.12-2.64-1.12s-2.04.36-2.68 1.12c-.64.72-.96 1.72-.96 3.12 0 1.32.32 2.32.96 3.04.64.72 1.56 1.12 2.68 1.12z" fill="url(#wordLight)"/>
  <path d="M192 41.76l-6.88-17.28h5.92l2.92 8.52c.32.92.56 1.84.72 2.72h.12c.12-.88.36-1.8.68-2.72l2.96-8.52h5.76l-6.88 17.28H192z" fill="url(#wordLight)"/>
</svg>
